<svg id="Layer_1" height="512" viewBox="0 0 64 64" width="512" xmlns="http://www.w3.org/2000/svg" data-name="Layer 1"><path d="m64 18.43a20.2252 20.2252 0 0 1 -4.56 13.04l-5.46 6.47-21.98 26.06-21.99-26.06-2.76-3.27-2.7-3.2c-6.07-7.2-6.07-18.87 0-26.07a14.3827 14.3827 0 0 1 10.99-5.4 14.3717 14.3717 0 0 1 11 5.4l5.46 6.48 5.46-6.48c6.07-7.2 15.91-7.2 21.98 0a20.1573 20.1573 0 0 1 4.55 12.64c.01.13.01.26.01.39z" fill="#da0037"/><path d="m64 18.43a20.2252 20.2252 0 0 1 -4.56 13.04l-5.46 6.47-21.98 26.06-21.99-26.06-2.76-3.27c12.55 10.26 35.28 4.76 56.74-16.63.01.13.01.26.01.39z" opacity=".2"/></svg>