<?xml version="1.0" encoding="iso-8859-1"?>
<!-- Generator: Adobe Illustrator 19.0.0, SVG Export Plug-In . SVG Version: 6.00 Build 0)  -->
<svg version="1.1" id="Capa_1" xmlns="http://www.w3.org/2000/svg" xmlns:xlink="http://www.w3.org/1999/xlink" x="0px" y="0px"
	 viewBox="0 0 511.995 511.995" style="enable-background:new 0 0 511.995 511.995;" xml:space="preserve">
<path style="fill:#FFFFFF;" d="M46.53,238.454c-2.664-3.472-75.04-98.448-2.504-170.112c25.92-25.616,58.328-39.16,93.728-39.16
	c49.264,0,89.776,24.552,109.488,45.592l8.752,9.344l8.76-9.336C284.466,53.742,324.97,29.19,374.25,29.19
	c35.392,0,67.8,13.536,93.72,39.16c30.304,29.936,39.184,67.456,26.4,111.488c-9.872,34-29.16,58.904-29.352,59.16l-209.024,237.64
	L46.53,238.454z"/>
<path style="fill:#EF0000;" d="M374.234,41.182c32.632,0,61.328,12.008,85.296,35.688c63.104,62.36,2.2,146.536-3.624,154.264
	L255.994,458.47L56.05,231.102c-6.048-7.936-67.04-91.536-3.592-154.224c23.968-23.68,52.664-35.688,85.296-35.688
	c42.52,0,81.232,20.992,100.736,41.8l17.504,18.672l17.512-18.68C293.01,62.174,331.722,41.182,374.234,41.182 M374.234,17.182
	c-47.904,0-93.048,22.504-118.24,49.384c-25.192-26.872-70.344-49.384-118.24-49.384c-34.808,0-71.056,11.888-102.16,42.616
	c-81.2,80.232,1.936,186.568,1.936,186.568l218.464,248.448l218.472-248.44c0,0,83.136-106.336,1.936-186.568
	C445.298,29.078,409.034,17.182,374.234,17.182L374.234,17.182z"/>
<g>
</g>
<g>
</g>
<g>
</g>
<g>
</g>
<g>
</g>
<g>
</g>
<g>
</g>
<g>
</g>
<g>
</g>
<g>
</g>
<g>
</g>
<g>
</g>
<g>
</g>
<g>
</g>
<g>
</g>
</svg>
